<svg xmlns="http://www.w3.org/2000/svg" viewBox="0 0 64 64">
  <title>screenplay-web</title>
  <defs>
    <linearGradient id="bg" x1="0" y1="0" x2="1" y2="1">
      <stop offset="0" stop-color="#14b8a6"/>
      <stop offset="1" stop-color="#0f766e"/>
    </linearGradient>
  </defs>
  <!-- 底板 -->
  <rect width="64" height="64" rx="14" fill="url(#bg)"/>
  <!-- 剧本纸：右上角折角 -->
  <path d="M17 13h22l9 9v29a3 3 0 0 1-3 3H17a3 3 0 0 1-3-3V16a3 3 0 0 1 3-3z" fill="#ffffff"/>
  <path d="M39 13v7a2 2 0 0 0 2 2h7z" fill="#99f6e4"/>
  <!-- 场记板条纹 -->
  <path d="M14 26h34v5H14z" fill="#0f172a"/>
  <path d="M18 26h5l-3 5h-5zM28 26h5l-3 5h-5zM38 26h5l-3 5h-5z" fill="#ffffff"/>
  <!-- 台词行：角色名居中短、台词长 -->
  <rect x="26" y="36" width="10" height="3" rx="1.5" fill="#0d9488"/>
  <rect x="20" y="42" width="22" height="3" rx="1.5" fill="#cbd5e1"/>
  <rect x="20" y="47.5" width="16" height="3" rx="1.5" fill="#cbd5e1"/>
</svg>
